<svg width="24" height="24" viewBox="0 0 24 24" fill="none" xmlns="http://www.w3.org/2000/svg">
<path d="M12 14.9961C13.6569 14.9961 15 13.6529 15 11.9961C15 10.3392 13.6569 8.99609 12 8.99609C10.3431 8.99609 9 10.3392 9 11.9961C9 13.6529 10.3431 14.9961 12 14.9961Z" stroke="#C3CED2" stroke-width="1.5" stroke-miterlimit="10" stroke-linecap="round" stroke-linejoin="round"/>
<path d="M2 12.8775V11.1175C2 10.0775 2.85 9.2175 3.9 9.2175C5.71 9.2175 6.45 7.9375 5.54 6.3675C5.02 5.4675 5.33 4.2975 6.24 3.7775L7.97 2.7875C8.76 2.3175 9.78 2.5975 10.25 3.3875L10.36 3.57749C11.26 5.1475 12.74 5.1475 13.65 3.57749L13.76 3.3875C14.23 2.5975 15.25 2.3175 16.04 2.7875L17.77 3.7775C18.68 4.2975 18.99 5.4675 18.47 6.3675C17.56 7.9375 18.3 9.2175 20.11 9.2175C21.15 9.2175 22.01 10.0675 22.01 11.1175V12.8775C22.01 13.9175 21.16 14.7775 20.11 14.7775C18.3 14.7775 17.56 16.0575 18.47 17.6275C18.99 18.5375 18.68 19.6975 17.77 20.2175L16.04 21.2075C15.25 21.6775 14.23 21.3975 13.76 20.6075L13.65 20.4175C12.75 18.8475 11.27 18.8475 10.36 20.4175L10.25 20.6075C9.78 21.3975 8.76 21.6775 7.97 21.2075L6.24 20.2175C5.33 19.6975 5.02 18.5275 5.54 17.6275C6.45 16.0575 5.71 14.7775 3.9 14.7775C2.85 14.7775 2 13.9175 2 12.8775Z" stroke="#C3CED2" stroke-width="1.5" stroke-miterlimit="10" stroke-linecap="round" stroke-linejoin="round"/>
</svg>
